<svg width="1440" height="544" viewBox="0 0 1440 544" fill="none" xmlns="http://www.w3.org/2000/svg">
<g clip-path="url(#clip0_212_16580)" filter="url(#filter0_f_212_16580)">
<path opacity="0.15" d="M1381.19 237.88C1414.7 274.97 1441.88 339.451 1391.8 384.973C1386.63 389.666 1338.18 432.248 1265.3 426.96C1176.54 420.52 1158.34 350.812 1060.38 332.716C954.298 313.119 892.037 379.425 840.231 359.056C778.971 334.97 771.451 205.071 882.331 149.396C1015.91 82.3255 1291.08 138.151 1381.19 237.88Z" fill="#EBC136"/>
<path opacity="0.15" d="M546.245 429.639C577.307 410.569 611.155 372.148 590.134 333.285C587.966 329.278 567.262 292.654 518.679 283.834C459.505 273.09 430.162 316.52 362.092 311.996C288.375 307.096 264.688 252.301 225.971 257.114C180.189 262.806 142.627 348.21 200.513 404.149C270.248 471.538 462.723 480.917 546.245 429.639Z" fill="#EBC136"/>
<path opacity="0.15" d="M728.575 321.89C713.187 300.799 697.464 260.221 710.947 222.859C712.337 219.007 725.519 183.857 751.877 178.297C783.983 171.526 797.013 216.799 833.481 216.823C872.973 216.849 888.817 163.774 909.122 171.155C933.131 179.883 948.044 267.57 913.944 319.508C872.865 382.075 769.953 378.602 728.575 321.89Z" fill="#EBC136"/>
<path opacity="0.15" d="M716.467 274.802C733.285 264.124 751.622 242.633 740.277 220.936C739.107 218.699 727.931 198.254 701.654 193.363C669.649 187.407 653.745 211.693 616.923 209.218C577.047 206.538 564.27 175.943 543.322 178.661C518.55 181.876 498.171 229.62 529.448 260.828C567.128 298.423 671.247 303.514 716.467 274.802Z" fill="#EBC136"/>
<path opacity="0.15" d="M1440.62 248.365C1458.76 232.046 1478.7 199.494 1466.95 167.192C1465.74 163.861 1454.14 133.43 1426.17 126.595C1392.09 118.269 1374.7 154.965 1335.42 151.946C1292.89 148.678 1279.75 103.066 1257.34 107.534C1230.83 112.818 1208.28 184.751 1241.15 230.934C1280.76 286.569 1391.86 292.244 1440.62 248.365Z" fill="#8047F8"/>
<path opacity="0.15" d="M1452.61 377.852C1466.71 388.804 1482.15 410.725 1472.84 432.622C1471.88 434.88 1462.7 455.511 1440.82 460.261C1414.16 466.047 1400.73 441.312 1370.03 443.533C1336.79 445.938 1326.35 476.841 1308.86 473.922C1288.17 470.471 1270.84 421.932 1296.71 390.552C1327.88 352.749 1414.69 348.404 1452.61 377.852Z" fill="#8047F8"/>
<path opacity="0.15" d="M253.937 136.891C266.507 158.616 278.932 200.056 266.695 237.491C265.433 241.351 253.5 276.558 231.055 281.502C203.717 287.524 193.675 241.405 162.792 240.442C129.347 239.4 114.765 292.665 97.7319 284.678C77.5904 275.234 66.883 186.175 96.8998 134.53C133.06 72.3152 220.139 78.4762 253.937 136.891Z" fill="#EBC136"/>
<path opacity="0.15" d="M895.507 432.947C869.621 413.727 844.462 375.18 870.926 336.528C873.654 332.543 899.434 296.123 946.6 287.62C1004.05 277.262 1024.11 320.78 1088.84 316.683C1158.94 312.246 1190.66 257.712 1226.2 262.753C1268.23 268.713 1288.76 354.166 1224.71 409.631C1147.55 476.449 965.112 484.627 895.507 432.947Z" fill="#EBC136"/>
<path opacity="0.15" d="M869.472 141.004C910.019 151.666 953.079 171.465 922.336 188.257C919.167 189.989 888.993 205.762 823.11 207.009C742.863 208.528 706.181 186.67 614.369 184.784C514.942 182.742 479.601 206.767 427.852 202.269C366.659 196.95 321.602 155.145 403 132.591C501.058 105.42 760.443 112.335 869.472 141.004Z" fill="#8047F8"/>
<path opacity="0.15" d="M220.075 464.017C239.161 441.865 259.286 399.532 244.39 361.129C242.854 357.169 228.246 321.05 196.916 315.836C158.756 309.486 141.697 356.625 98.0991 357.4C50.885 358.24 33.6802 303.618 9.16497 311.677C-19.8236 321.207 -40.522 412.296 -1.45561 465.364C45.6067 529.295 168.752 523.582 220.075 464.017Z" fill="#8047F8"/>
</g>
<defs>
<filter id="filter0_f_212_16580" x="-153" y="-160" width="1760" height="864" filterUnits="userSpaceOnUse" color-interpolation-filters="sRGB">
<feFlood flood-opacity="0" result="BackgroundImageFix"/>
<feBlend mode="normal" in="SourceGraphic" in2="BackgroundImageFix" result="shape"/>
<feGaussianBlur stdDeviation="80" result="effect1_foregroundBlur_212_16580"/>
</filter>
<clipPath id="clip0_212_16580">
<rect width="1440" height="544" fill="white" transform="translate(7)"/>
</clipPath>
</defs>
</svg>
